<svg width="173" height="27" viewBox="0 0 173 27" fill="none" xmlns="http://www.w3.org/2000/svg">
<path d="M7.87857 19.1432C5.41154 19.1432 3.59708 18.5146 2.43519 17.2572C1.28922 15.9998 0.716234 14.3445 0.716234 12.2913C0.716234 10.2222 1.06639 8.34404 1.76671 6.65691C2.48294 4.95386 3.54138 3.56119 4.94201 2.47888C6.34265 1.38065 7.8547 0.831541 9.47816 0.831541C11.1175 0.831541 12.3988 1.22945 13.3219 2.02526C14.261 2.80516 14.7305 3.8636 14.7305 5.20057C14.7305 6.52162 14.3167 7.61984 13.4891 8.49524C12.6773 9.37064 11.7224 9.80834 10.6241 9.80834C9.52591 9.80834 8.67438 9.56959 8.06957 9.0921C7.46475 8.5987 7.16234 8.08142 7.16234 7.54026C7.16234 6.98319 7.37721 6.55345 7.80695 6.25104C8.2526 5.93272 8.89721 5.77355 9.74078 5.77355C9.53387 5.98046 9.43041 6.259 9.43041 6.60916C9.43041 6.9434 9.53387 7.23785 9.74078 7.49251C9.94769 7.74717 10.266 7.8745 10.6958 7.8745C11.1255 7.8745 11.5552 7.65168 11.985 7.20602C12.4147 6.74445 12.6296 6.13963 12.6296 5.39156C12.6296 4.64349 12.3988 4.04663 11.9372 3.60098C11.4916 3.15532 10.8549 2.93249 10.0273 2.93249C8.94496 2.93249 7.95815 3.37019 7.06684 4.24559C6.19144 5.12098 5.52296 6.23513 5.06138 7.58801C4.59981 8.9409 4.36903 10.3654 4.36903 11.8615C4.36903 13.1508 4.64756 14.2888 5.20463 15.2756C5.49112 15.7849 5.91291 16.1908 6.46998 16.4932C7.04296 16.7956 7.71145 16.9468 8.47543 16.9468C9.78057 16.9468 11.038 16.533 12.2476 15.7053C13.4572 14.8618 14.4759 13.7795 15.3035 12.4584L16.1153 13.9147C15.1762 15.4427 13.9984 16.7001 12.5818 17.6869C11.1653 18.6578 9.59753 19.1432 7.87857 19.1432ZM27.0544 19.1194C25.5901 19.1194 24.6192 18.6101 24.1417 17.5914C23.3141 18.626 22.2477 19.1432 20.9426 19.1432C19.6533 19.1432 18.5631 18.7055 17.6718 17.8302C16.7964 16.9548 16.3587 15.8008 16.3587 14.3684C16.3587 12.2833 16.9714 10.6201 18.197 9.37859C19.4226 8.13712 20.9744 7.51639 22.8525 7.51639C22.9003 7.51639 22.948 7.51639 22.9958 7.51639C23.7916 7.51639 24.5237 7.65168 25.1922 7.92225C25.622 7.65168 26.1392 7.51639 26.7441 7.51639C27.3648 7.51639 27.8104 7.59597 28.081 7.75513C27.9378 8.93294 27.7866 10.0948 27.6274 11.2408C27.4682 12.3709 27.3568 13.1746 27.2932 13.6521C27.1499 14.7344 27.0783 15.5143 27.0783 15.9918C27.0783 16.6285 27.333 16.9468 27.8423 16.9468C28.2402 16.9468 28.662 16.6842 29.1076 16.1589C29.5533 15.6178 29.9432 14.7742 30.2775 13.6282C30.739 14.0421 31.0574 14.5036 31.2324 15.013C30.7709 16.525 30.1501 17.5914 29.3702 18.2121C28.5903 18.817 27.8184 19.1194 27.0544 19.1194ZM23.2106 9.37859C22.192 9.37859 21.3803 9.76854 20.7754 10.5484C20.1865 11.3124 19.8364 12.4584 19.725 13.9864C19.709 14.1296 19.7011 14.2649 19.7011 14.3922C19.7011 15.1721 19.8841 15.7929 20.2502 16.2544C20.6322 16.716 21.1176 16.9468 21.7065 16.9468C22.7093 16.9468 23.4653 16.2385 23.9746 14.822L24.5476 9.66509C24.086 9.47409 23.6404 9.37859 23.2106 9.37859ZM37.866 19.0239C38.7414 20.5678 39.1791 21.8411 39.1791 22.8438C39.1791 23.8624 38.8687 24.6821 38.248 25.3029C37.6432 25.9395 36.8474 26.2578 35.8605 26.2578C34.8737 26.2578 34.062 25.9793 33.4254 25.4222C32.8046 24.8811 32.4942 24.125 32.4942 23.1542C32.4942 22.9632 32.5261 22.5812 32.5897 22.0082L33.3299 15.5621C32.3908 14.3047 31.6189 13.302 31.014 12.5539C31.5552 11.8058 32.0088 11.4318 32.3749 11.4318C32.55 11.4318 32.7091 11.5193 32.8524 11.6944C33.0115 11.8695 33.2741 12.1958 33.6402 12.6733L34.5475 4.65145C34.6748 3.60098 34.9294 2.74946 35.3114 2.09689C35.8208 1.25332 36.7598 0.831541 38.1286 0.831541C39.0995 0.831541 39.8396 1.10212 40.3489 1.64327C40.8583 2.16851 41.1129 2.90066 41.1129 3.83972C41.1129 5.09711 40.6991 6.33858 39.8715 7.56414C39.0597 8.78969 38.1127 9.86404 37.0304 10.7872L36.4335 16.5409C36.7041 16.8433 37.0861 16.9945 37.5795 16.9945C38.5663 16.9945 39.386 16.5807 40.0386 15.7531C40.7071 14.9095 41.288 13.7237 41.7814 12.1958C42.0042 12.3231 42.235 12.4902 42.4738 12.6971C42.7284 12.8881 42.8717 13.0234 42.9035 13.103C42.5374 14.8697 41.9008 16.2385 40.9936 17.2094C40.0863 18.1803 39.0438 18.7851 37.866 19.0239ZM38.9881 2.90862C38.9085 2.8927 38.8289 2.88474 38.7494 2.88474C38.3196 2.88474 38.0331 3.16328 37.8899 3.72035C37.7466 4.27742 37.5715 5.55868 37.3646 7.56414L37.2691 8.47137C37.9535 7.77105 38.5027 7.03094 38.9165 6.25104C39.3462 5.45523 39.5611 4.73899 39.5611 4.10234C39.5611 3.44977 39.3701 3.05187 38.9881 2.90862ZM35.7889 22.6289C35.773 22.7085 35.765 22.8756 35.765 23.1303C35.765 23.4009 35.8446 23.6237 36.0038 23.7988C36.163 23.9738 36.3699 24.0614 36.6245 24.0614C36.8951 24.0614 37.1339 23.95 37.3408 23.7271C37.5477 23.5202 37.6511 23.1939 37.6511 22.7483C37.6511 21.9047 37.1498 20.7508 36.147 19.2865L35.7889 22.6289ZM47.5667 5.86905L50.5987 1.40453C50.9171 1.56369 51.2911 1.87406 51.7208 2.33563C52.1506 2.78129 52.5007 3.19511 52.7713 3.5771L48.4739 6.75241C48.2829 6.64099 47.9805 6.34654 47.5667 5.86905ZM47.3996 13.6521C48.3864 13.4452 49.1185 13.0473 49.596 12.4584C50.0894 11.8695 50.3361 11.3045 50.3361 10.7633C50.3361 10.2062 50.1849 9.83221 49.8825 9.64121C49.596 9.4343 49.2777 9.33085 48.9275 9.33085C48.1795 9.33085 47.5189 9.75263 46.9459 10.5962C46.3889 11.4238 46.1103 12.4186 46.1103 13.5805C46.1103 14.7265 46.3809 15.586 46.9221 16.1589C47.4791 16.716 48.1635 16.9945 48.9753 16.9945C50.169 16.9945 51.315 16.5807 52.4132 15.7531C53.5114 14.9254 54.4027 13.8431 55.0871 12.5061C55.4373 12.8404 55.7556 13.2542 56.0421 13.7476C55.5169 14.9413 54.5858 16.1112 53.2488 17.2572C52.5803 17.8142 51.7845 18.2679 50.8614 18.618C49.9541 18.9682 49.0151 19.1432 48.0442 19.1432C46.4525 19.1432 45.1951 18.6578 44.272 17.6869C43.2852 16.6364 42.7918 15.2915 42.7918 13.6521C42.7918 12.0127 43.4046 10.5803 44.6301 9.35472C45.8716 8.12917 47.3518 7.51639 49.0708 7.51639C50.2963 7.51639 51.2911 7.78696 52.0551 8.32812C52.8191 8.85336 53.209 9.56959 53.2249 10.4768C53.2249 11.7024 52.7315 12.6971 51.7447 13.4611C50.7738 14.2251 49.4368 14.7583 47.7338 15.0607L47.3996 13.6521ZM73.1015 19.3104C73.1015 18.9284 73.006 18.4031 72.815 17.7347C71.3985 18.7215 69.9023 19.2149 68.3266 19.2149C66.7668 19.2149 65.5413 18.7772 64.65 17.9018C63.7587 17.0105 63.313 15.96 63.313 14.7503C63.313 13.4452 63.7348 12.2992 64.5783 11.3124C65.215 10.5803 66.2575 9.78446 67.7059 8.92498C66.9578 7.4766 66.5838 6.17942 66.5838 5.03344C66.5838 3.88747 67.0135 2.8927 67.873 2.04914C68.7325 1.18966 69.9262 0.759917 71.4542 0.759917C72.5206 0.759917 73.388 1.03845 74.0565 1.59552C74.7409 2.15259 75.0831 2.85291 75.0831 3.69648C75.0831 5.30402 73.9371 7.0389 71.6452 8.90111C71.8043 9.15577 72.2341 9.78446 72.9344 10.7872C73.6347 11.7899 74.16 12.5778 74.5101 13.1508C74.8284 12.4982 74.9876 11.9013 74.9876 11.3602C74.9876 10.2619 74.6215 9.69692 73.8894 9.66509C73.8894 9.55367 73.9292 9.37064 74.0088 9.11598C74.0883 8.86132 74.1838 8.6544 74.2952 8.49524C74.4067 8.33608 74.5817 8.19283 74.8205 8.0655C75.0592 7.93817 75.3298 7.8745 75.6322 7.8745C76.2052 7.8745 76.6747 8.09733 77.0408 8.54299C77.4228 8.97273 77.6138 9.52184 77.6138 10.1903C77.6138 10.4291 77.5899 10.6758 77.5422 10.9304C77.2716 12.2515 76.6111 13.6282 75.5606 15.0607C76.1654 16.3977 76.4678 17.5516 76.4678 18.5225C76.4678 19.4775 76.3166 20.2574 76.0142 20.8622C75.489 21.8809 74.5658 22.5653 73.2448 22.9154C72.7991 23.0268 72.3535 23.0825 71.9078 23.0825H71.6213V21.6262C72.6081 21.1328 73.1015 20.3608 73.1015 19.3104ZM71.4542 2.86087C70.9767 2.86087 70.5788 3.01207 70.2605 3.31448C69.9581 3.60098 69.7909 4.02276 69.7591 4.57983C69.7591 5.28015 70.0536 6.17942 70.6425 7.27764C71.295 6.76832 71.8282 6.29083 72.242 5.84518C72.7195 5.30402 72.9583 4.81062 72.9583 4.36496C72.9583 3.90339 72.8389 3.54527 72.6002 3.29061C72.3296 3.00412 71.9476 2.86087 71.4542 2.86087ZM66.6793 14.2251L66.6554 14.5116C66.6554 15.1801 66.8783 15.7769 67.3239 16.3022C67.7696 16.8115 68.446 17.0662 69.3532 17.0662C70.2764 17.0662 71.1836 16.724 72.0749 16.0396C71.6134 15.1642 71.0722 14.2569 70.4515 13.3179C69.8307 12.3788 69.4169 11.7501 69.21 11.4318L68.9474 11.0021C68.1038 11.6546 67.5308 12.2197 67.2284 12.6971C66.926 13.1746 66.743 13.684 66.6793 14.2251ZM88.1174 6.08392C88.1174 4.57187 88.7859 3.32244 90.1229 2.33563C91.4599 1.3329 93.2266 0.831541 95.423 0.831541C96.5849 0.831541 97.6274 0.950913 98.5506 1.18966C99.4737 1.41249 100.206 1.69898 100.747 2.04914C101.288 2.3993 101.742 2.80516 102.108 3.26673C102.713 4.06255 103.007 4.95386 102.991 5.94067C102.991 6.91157 102.609 7.77901 101.845 8.54299C101.081 9.30697 100.158 9.70488 99.0758 9.73671C100.429 9.83221 101.599 10.2779 102.585 11.0737C103.588 11.8695 104.089 12.8722 104.089 14.0819C104.089 15.6735 103.477 16.915 102.251 17.8063C101.026 18.6976 99.5294 19.1432 97.7627 19.1432C96.0119 19.1432 94.8182 18.9125 94.1815 18.4509L94.9217 16.4454C95.622 16.8115 96.4337 16.9945 97.3568 16.9945C98.2959 16.9945 99.0599 16.724 99.6488 16.1828C100.238 15.6257 100.532 14.8936 100.532 13.9864C100.532 13.0791 100.126 12.3152 99.3146 11.6944C98.5187 11.0737 97.4285 10.7633 96.0438 10.7633L96.2586 8.9966C97.2136 8.9966 98.0174 8.77378 98.6699 8.32812C99.3384 7.86655 99.6806 7.18215 99.6965 6.27492C99.7284 5.36769 99.3225 4.6037 98.4789 3.98297C97.5717 3.3304 96.3302 3.00412 94.7545 3.00412C93.72 3.00412 92.7093 3.27469 91.7225 3.81585C90.7357 4.34109 90.2423 5.04936 90.2423 5.94067C90.2423 6.37041 90.4173 6.73649 90.7675 7.0389C91.1177 7.32539 91.5792 7.50047 92.1522 7.56414L91.8896 9.33085C90.68 9.2831 89.7489 8.9409 89.0963 8.30424C88.4437 7.66759 88.1174 6.92748 88.1174 6.08392ZM94.9455 14.4161C94.6909 16.1191 94.1975 17.3288 93.4653 18.045C92.7332 18.7453 91.8737 19.0955 90.8869 19.0955C89.9001 19.0955 89.152 18.8408 88.6427 18.3315C88.1334 17.8222 87.8787 17.1696 87.8787 16.3738C87.8787 14.4957 89.3032 12.8961 92.1522 11.575C92.2318 10.9066 92.3432 10.0073 92.4865 8.87723C92.6456 7.73126 92.765 6.80811 92.8446 6.1078C92.9401 5.40748 93.0037 4.9459 93.0356 4.72308C93.6881 4.30925 94.4442 4.10234 95.3036 4.10234C95.7016 4.10234 96.0835 4.14213 96.4496 4.22171L94.9455 14.4161ZM89.6454 16.0634C89.6454 16.6364 89.916 16.9229 90.4571 16.9229C90.68 16.9229 90.9107 16.7797 91.1495 16.4932C91.4042 16.1908 91.5792 15.7212 91.6747 15.0846L91.8896 13.6044C90.3935 14.4479 89.6454 15.2676 89.6454 16.0634ZM117.317 19.1194C115.852 19.1194 114.881 18.6101 114.404 17.5914C113.576 18.626 112.51 19.1432 111.205 19.1432C109.916 19.1432 108.825 18.7055 107.934 17.8302C107.059 16.9548 106.621 15.8008 106.621 14.3684C106.621 12.2833 107.234 10.6201 108.459 9.37859C109.685 8.13712 111.237 7.51639 113.115 7.51639C113.162 7.51639 113.21 7.51639 113.258 7.51639C114.054 7.51639 114.786 7.65168 115.454 7.92225C115.884 7.65168 116.401 7.51639 117.006 7.51639C117.627 7.51639 118.073 7.59597 118.343 7.75513C118.2 8.93294 118.049 10.0948 117.89 11.2408C117.73 12.3709 117.619 13.1746 117.555 13.6521C117.412 14.7344 117.341 15.5143 117.341 15.9918C117.341 16.6285 117.595 16.9468 118.104 16.9468C118.502 16.9468 118.924 16.6842 119.37 16.1589C119.815 15.6178 120.205 14.7742 120.54 13.6282C121.001 14.0421 121.32 14.5036 121.495 15.013C121.033 16.525 120.412 17.5914 119.632 18.2121C118.853 18.817 118.081 19.1194 117.317 19.1194ZM113.473 9.37859C112.454 9.37859 111.642 9.76854 111.038 10.5484C110.449 11.3124 110.099 12.4584 109.987 13.9864C109.971 14.1296 109.963 14.2649 109.963 14.3922C109.963 15.1721 110.146 15.7929 110.512 16.2544C110.894 16.716 111.38 16.9468 111.969 16.9468C112.971 16.9468 113.728 16.2385 114.237 14.822L114.81 9.66509C114.348 9.47409 113.903 9.37859 113.473 9.37859ZM132.497 10.4052C132.497 12.0605 131.51 13.3258 129.537 14.2012C129.585 14.4877 129.656 14.8299 129.752 15.2278C130.038 16.4056 130.516 17.0105 131.184 17.0423C131.232 17.0423 131.28 17.0423 131.327 17.0423C132.601 17.0423 133.548 15.9202 134.168 13.676C134.503 13.9784 134.821 14.432 135.123 15.0368C134.901 15.8963 134.582 16.6205 134.168 17.2094C133.771 17.7983 133.333 18.2201 132.855 18.4748C132.012 18.9204 131.216 19.1432 130.468 19.1432C128.717 19.1432 127.492 18.1644 126.791 16.2067C126.521 15.4268 126.338 14.631 126.242 13.8192C127.149 13.5964 127.866 13.2303 128.391 12.721C128.916 12.1958 129.179 11.6387 129.179 11.0498C129.179 10.0312 128.669 9.52184 127.651 9.52184C127.094 9.52184 126.616 9.73671 126.218 10.1665C125.82 10.5803 125.558 11.0816 125.43 11.6705C125.335 12.4823 125.176 13.7635 124.953 15.5143C124.746 17.2492 124.611 18.4111 124.547 19H121.372C122.518 9.24331 123.21 3.25082 123.449 1.02254C123.783 0.895206 124.237 0.831541 124.81 0.831541C126.051 0.831541 126.672 1.19762 126.672 1.92977V2.07301C126.354 4.95386 126.059 7.15827 125.789 8.68624C126.664 7.8745 127.762 7.46864 129.083 7.46864C130.07 7.46864 130.882 7.7233 131.518 8.23262C132.171 8.74194 132.497 9.46613 132.497 10.4052ZM139.877 13.6521C140.863 13.4452 141.596 13.0473 142.073 12.4584C142.567 11.8695 142.813 11.3045 142.813 10.7633C142.813 10.2062 142.662 9.83221 142.36 9.64121C142.073 9.4343 141.755 9.33085 141.405 9.33085C140.657 9.33085 139.996 9.75263 139.423 10.5962C138.866 11.4238 138.587 12.4186 138.587 13.5805C138.587 14.7265 138.858 15.586 139.399 16.1589C139.956 16.716 140.641 16.9945 141.452 16.9945C142.646 16.9945 143.792 16.5807 144.89 15.7531C145.989 14.9254 146.88 13.8431 147.564 12.5061C147.914 12.8404 148.233 13.2542 148.519 13.7476C147.994 14.9413 147.063 16.1112 145.726 17.2572C145.057 17.8142 144.262 18.2679 143.338 18.618C142.431 18.9682 141.492 19.1432 140.521 19.1432C138.93 19.1432 137.672 18.6578 136.749 17.6869C135.762 16.6364 135.269 15.2915 135.269 13.6521C135.269 12.0127 135.882 10.5803 137.107 9.35472C138.349 8.12917 139.829 7.51639 141.548 7.51639C142.773 7.51639 143.768 7.78696 144.532 8.32812C145.296 8.85336 145.686 9.56959 145.702 10.4768C145.702 11.7024 145.209 12.6971 144.222 13.4611C143.251 14.2251 141.914 14.7583 140.211 15.0607L139.877 13.6521ZM155.51 10.6439C155.51 9.94362 155.184 9.59347 154.531 9.59347C153.895 9.59347 153.385 10.0073 153.003 10.8349C154.722 12.1878 155.582 13.7078 155.582 15.395C155.582 16.6205 155.24 17.5516 154.555 18.1883C153.871 18.8249 153.011 19.1432 151.977 19.1432C150.942 19.1432 150.186 18.8249 149.709 18.1883C149.231 17.5357 148.992 16.716 148.992 15.7292C148.992 15.4268 149 15.204 149.016 15.0607L149.852 7.77901C150.425 7.60393 151.006 7.51639 151.595 7.51639C152.566 7.51639 153.051 7.8745 153.051 8.59074V8.63849C153.688 7.89042 154.499 7.51639 155.486 7.51639C156.203 7.51639 156.76 7.68351 157.158 8.01775C157.555 8.33608 157.754 8.76582 157.754 9.30697C157.754 9.84813 157.547 10.2938 157.134 10.6439C156.736 10.9782 156.21 11.1453 155.558 11.1453C155.526 11.1453 155.494 11.1453 155.462 11.1453C155.494 10.9702 155.51 10.8031 155.51 10.6439ZM154.03 15.2756C154.03 14.3524 153.552 13.4293 152.597 12.5061C152.311 14.7981 152.168 15.952 152.168 15.9679C152.168 16.6364 152.438 16.9707 152.979 16.9707C153.68 16.9707 154.03 16.4056 154.03 15.2756ZM164.322 26.0907C163.415 26.0907 162.635 25.8122 161.983 25.2551C161.33 24.714 161.004 23.9181 161.004 22.8677C161.004 21.5784 161.656 20.3211 162.962 19.0955C162.038 19.0159 161.298 18.7135 160.741 18.1883C160.184 17.663 159.906 16.9229 159.906 15.9679C159.906 15.5223 159.961 14.8538 160.073 13.9625C160.184 13.0712 160.304 12.1082 160.431 11.0737C160.558 10.0391 160.694 8.9409 160.837 7.77901C161.33 7.60393 161.784 7.51639 162.198 7.51639C162.611 7.51639 162.922 7.5323 163.129 7.56414C163.336 7.59597 163.535 7.71534 163.726 7.92225C163.917 8.12917 164.012 8.42362 164.012 8.80561L163.224 14.8936C163.192 15.1483 163.176 15.3233 163.176 15.4188C163.176 16.3579 163.606 16.8274 164.466 16.8274C165.246 16.8274 165.882 16.4613 166.376 15.7292C166.423 15.3631 166.543 14.3126 166.734 12.5778C166.925 10.827 167.084 9.46613 167.211 8.49524C167.355 8.19283 167.649 7.95409 168.095 7.77901C168.556 7.60393 168.93 7.51639 169.217 7.51639C169.726 7.51639 170.188 7.58005 170.601 7.70738L169.479 16.5171C171.342 16.8513 172.456 18.1326 172.822 20.3608C172.758 20.6633 172.456 21.1407 171.915 21.7933C171.596 19.8038 170.721 18.5941 169.288 18.1644L168.906 21.1487C168.731 22.5812 168.278 23.759 167.546 24.6821C166.813 25.6212 165.739 26.0907 164.322 26.0907ZM162.866 22.414C162.866 22.9393 162.993 23.3292 163.248 23.5839C163.503 23.8386 163.837 23.9659 164.251 23.9659C164.681 23.9659 165.007 23.7908 165.23 23.4406C165.453 23.0905 165.628 22.3902 165.755 21.3397L166.065 18.7135C163.98 19.7958 162.914 21.0293 162.866 22.414Z" fill="black"/>
</svg>
